<svg xmlns="http://www.w3.org/2000/svg" viewBox="0 0 24 24" width="24" height="24" fill="currentColor">
  <path d="M7 2a1 1 0 0 0-1 1v1H5a3 3 0 0 0-3 3v11a3 3 0 0 0 3 3h14a3 3 0 0 0 3-3V7a3 3 0 0 0-3-3h-1V3a1 1 0 1 0-2 0v1H8V3a1 1 0 0 0-1-1zm12 6H5v10a1 1 0 0 0 1 1h12a1 1 0 0 0 1-1V8z"/>
  <rect x="7" y="10" width="4" height="3" rx=".5"/>
  <rect x="13" y="10" width="4" height="3" rx=".5"/>
  <rect x="7" y="14" width="4" height="3" rx=".5"/>
  <rect x="13" y="14" width="4" height="3" rx=".5"/>
</svg>


